<?xml version="1.0" encoding="utf-8"?><!-- Generator: Adobe Illustrator 23.1.0, SVG Export Plug-In . SVG Version: 6.00 Build 0)  -->
<svg version="1.1" id="Ebene_1" xmlns="http://www.w3.org/2000/svg" x="0px" y="0px"
    viewBox="0 0 566.9291382 235" style="enable-background:new 0 0 566.9291382 235;"
    xml:space="preserve">
<style type="text/css">
	.st0{fill:#EDEDED;}
	.st1{fill:none;stroke:#FFFFFF;stroke-width:3.1333334;stroke-miterlimit:3.1333334;}
	.st2{fill:#AADAFF;}
	.st3{fill:none;stroke:#AADAFF;stroke-width:1.5666667;stroke-miterlimit:3.1333334;}
	.st4{fill:#C0ECAE;}
	.st5{fill:#FDF2AF;}
</style>
    <rect x="-0.0000075" y="-0.0000042" class="st0" width="566.9291382" height="235.0000153" />
    <path class="st1" d="M327.2528992-192.073349c2.8983459,3.8383331,6.8933105,143.2716675,61.2566528,218.863327
	S70.3195648,415.793335,70.3195648,415.793335" />
    <path class="st2" d="M433.5512085,49.2716599c-15.2749939-4.7000008-26.7900085-11.4366722-22.1683044-26.7116737
	c4.6999817-15.2750006,20.9150085-23.8916683,36.1900024-19.2700062s23.8916626,20.9150105,19.269989,36.1900101
	C462.2212524,54.7549934,448.9045715,53.9716568,433.5512085,49.2716599z" />
    <path class="st2" d="M441.2279358,167.8683319c-15.2749939-4.7000122-26.7900085-11.436676-22.168335-26.7116852
	c4.7000122-15.2749939,20.9150085-23.8916626,36.1900024-19.2699966
	c15.2750244,4.6999969,23.8916931,20.9150009,19.269989,36.1900101
	C469.8196106,173.4299927,456.5029297,172.5683289,441.2279358,167.8683319z" />
    <path class="st3" d="M442.5595703,48.5666618c0,0-24.8316956,12.1416664-11.75,50.9166679
	c-2.0366516,12.2983475-10.8099976,20.4450073-7.2850037,38.6966629" />
    <path class="st1"
        d="M494.7295837,176.7200012c0,0-174.2916565,1.488327-190.3500061,86.6366882" />
    <path class="st4" d="M162.9095764,224.7383575c0,0-48.3316727-63.9200134-49.820015-90.3966675
	c-1.4883347-26.4766617,14.1783447-32.1166687,13.3950043-35.1716614
	c-0.7833328-3.0550003-3.8383255-10.1833344,0.8616714-10.0266571s9.4783478,11.2799911,17.781662,8.3033371
	c8.3816681-3.0549927,33.291687-6.0316772,38.7750244,3.6816788c5.4833221,9.7133484,43.0049896-8.2250061,48.6450043-2.6633301
	c5.6400146,5.4833298-1.7233429,92.2766571-4.9349976,95.8799896
	C224.4012451,198.0266571,162.9095764,224.7383575,162.9095764,224.7383575z" />
    <path class="st5" d="M58.0995636,68.5416641c0,0,403.4949951,47.234993,461.2266846,15.1966629" />
    <path class="st1" d="M-2.5304389,62.1183205c0,0,308.9466553,15.9799995,431.5383606-4.6216621
	c12.6116638-2.1150093,24.6750183,2.8983421,32.7433472,0c9.478302-3.3683243,21.1499939-23.7349892,22.7949829-28.2783394" />
</svg>
